#Comment line ignore any data following # character 
#Hierarchical Translation and Rotation (.htr) file 
[Header]	
#Header keywords are followed by a single value 
FileType HTR		#Single word string
DataType HTRS		#Translation followed by rotation and scale data
FileVersion 1		#integer
NumSegments 64		#integer
NumFrames 3		#integer
DataFrameRate 30		#integer, data frame rate in this file
EulerRotationOrder ZYX
CalibrationUnits mm
RotationUnits Degrees
GlobalAxisofGravity Y
BoneLengthAxis Y
ScaleFactor 1.00
[SegmentNames&Hierarchy]
#CHILD	PARENT
Pinger_Root GLOBAL
Pelvis Pinger_Root
L_Hip Pelvis
R_Hip Pelvis
Rear_Leg01 Pelvis
Spine1 Pelvis
L_Leg01 L_Hip
L_Leg02 L_Leg01
L_Leg03 L_Leg02
L_Foot L_Leg03
L_Toe1_01 L_Foot
L_Toe2_01 L_Foot
L_Toe3_01 L_Foot
planeAlignerLeft L_Foot
L_Toe1_02 L_Toe1_01
L_Toe1_03 L_Toe1_02
L_Toe2_02 L_Toe2_01
L_Toe2_03 L_Toe2_02
L_Toe3_02 L_Toe3_01
L_Toe3_03 L_Toe3_02
planeLockWeightLeft planeAlignerLeft
R_Leg01 R_Hip
R_Leg02 R_Leg01
R_Leg03 R_Leg02
R_Foot R_Leg03
planeAlignerRight R_Foot
R_Toe1_01 R_Foot
R_Toe2_01 R_Foot
R_Toe3_01 R_Foot
planeLockWeightRight planeAlignerRight
R_Toe1_02 R_Toe1_01
R_Toe1_03 R_Toe1_02
R_Toe2_02 R_Toe2_01
R_Toe2_03 R_Toe2_02
R_Toe3_02 R_Toe3_01
R_Toe3_03 R_Toe3_02
Rear_Leg02 Rear_Leg01
Rear_Leg03 Rear_Leg02
Rear_Leg04 Rear_Leg03
Rear_Foot Rear_Leg04
planeAlignerCenter Rear_Foot
Rear_Toe1_01 Rear_Foot
Rear_Toe2_01 Rear_Foot
Rear_Toe3_01 Rear_Foot
planeLockWeightCenter planeAlignerCenter
Rear_Toe1_02 Rear_Toe1_01
Rear_Toe1_03 Rear_Toe1_02
Rear_Toe2_02 Rear_Toe2_01
Rear_Toe2_03 Rear_Toe2_02
Rear_Toe3_02 Rear_Toe3_01
Rear_Toe3_03 Rear_Toe3_02
Back_Bone Spine1
Head Spine1
Motor_Bone Back_Bone
Ping_Mechanism Back_Bone
BN_LookIK Head
bottomMouth Head
L_Mouth01 Head
L_mouthFront Head
mouthGun Head
R_Mouth01 Head
R_mouthFront Head
TopMouth Head
weapon_bone Head
[BasePosition]
#SegmentName Tx, Ty, Tz, Rx, Ry, Rz, BoneLength
Pinger_Root 0.000000 0.000000 0.000000 -90.000000 0.000000 0.000000 10.000000 
Pelvis 0.000000 0.000000 0.000000 0.000000 0.000000 0.000000 10.000000 
L_Hip 0.000000 0.000000 0.000000 0.000000 0.000000 0.000000 10.000000 
R_Hip 0.000000 0.000000 0.000000 0.000000 0.000000 0.000000 10.000000 
Rear_Leg01 0.000000 0.000000 0.000000 0.000000 0.000000 0.000000 10.000000 
Spine1 0.000000 0.000000 0.000000 0.000000 0.000000 0.000000 10.000000 
L_Leg01 0.000000 0.000000 0.000000 0.000000 0.000000 0.000000 10.000000 
L_Leg02 0.000000 0.000000 0.000000 0.000000 0.000000 0.000000 10.000000 
L_Leg03 0.000000 0.000000 0.000000 0.000000 0.000000 0.000000 10.000000 
L_Foot 0.000000 0.000000 0.000000 0.000000 0.000000 0.000000 10.000000 
L_Toe1_01 0.000000 0.000000 0.000000 0.000000 0.000000 0.000000 10.000000 
L_Toe2_01 0.000000 0.000000 0.000000 0.000000 0.000000 0.000000 10.000000 
L_Toe3_01 0.000000 0.000000 0.000000 0.000000 0.000000 0.000000 10.000000 
planeAlignerLeft 0.000000 0.000000 0.000000 0.000000 0.000000 0.000000 10.000000 
L_Toe1_02 0.000000 0.000000 0.000000 0.000000 0.000000 0.000000 10.000000 
L_Toe1_03 0.000000 0.000000 0.000000 0.000000 0.000000 0.000000 10.000000 
L_Toe2_02 0.000000 0.000000 0.000000 0.000000 0.000000 0.000000 10.000000 
L_Toe2_03 0.000000 0.000000 0.000000 0.000000 0.000000 0.000000 10.000000 
L_Toe3_02 0.000000 0.000000 0.000000 0.000000 0.000000 0.000000 10.000000 
L_Toe3_03 0.000000 0.000000 0.000000 0.000000 0.000000 0.000000 10.000000 
planeLockWeightLeft 0.000000 0.000000 0.000000 0.000000 0.000000 0.000000 10.000000 
R_Leg01 0.000000 0.000000 0.000000 0.000000 0.000000 0.000000 10.000000 
R_Leg02 0.000000 0.000000 0.000000 0.000000 0.000000 0.000000 10.000000 
R_Leg03 0.000000 0.000000 0.000000 0.000000 0.000000 0.000000 10.000000 
R_Foot 0.000000 0.000000 0.000000 0.000000 0.000000 0.000000 10.000000 
planeAlignerRight 0.000000 0.000000 0.000000 0.000000 0.000000 0.000000 10.000000 
R_Toe1_01 0.000000 0.000000 0.000000 0.000000 0.000000 0.000000 10.000000 
R_Toe2_01 0.000000 0.000000 0.000000 0.000000 0.000000 0.000000 10.000000 
R_Toe3_01 0.000000 0.000000 0.000000 0.000000 0.000000 0.000000 10.000000 
planeLockWeightRight 0.000000 0.000000 0.000000 0.000000 0.000000 0.000000 10.000000 
R_Toe1_02 0.000000 0.000000 0.000000 0.000000 0.000000 0.000000 10.000000 
R_Toe1_03 0.000000 0.000000 0.000000 0.000000 0.000000 0.000000 10.000000 
R_Toe2_02 0.000000 0.000000 0.000000 0.000000 0.000000 0.000000 10.000000 
R_Toe2_03 0.000000 0.000000 0.000000 0.000000 0.000000 0.000000 10.000000 
R_Toe3_02 0.000000 0.000000 0.000000 0.000000 0.000000 0.000000 10.000000 
R_Toe3_03 0.000000 0.000000 0.000000 0.000000 0.000000 0.000000 10.000000 
Rear_Leg02 0.000000 0.000000 0.000000 0.000000 0.000000 0.000000 10.000000 
Rear_Leg03 0.000000 0.000000 0.000000 0.000000 0.000000 0.000000 10.000000 
Rear_Leg04 0.000000 0.000000 0.000000 0.000000 0.000000 0.000000 10.000000 
Rear_Foot 0.000000 0.000000 0.000000 0.000000 0.000000 0.000000 10.000000 
planeAlignerCenter 0.000000 0.000000 0.000000 0.000000 0.000000 0.000000 10.000000 
Rear_Toe1_01 0.000000 0.000000 0.000000 0.000000 0.000000 0.000000 10.000000 
Rear_Toe2_01 0.000000 0.000000 0.000000 0.000000 0.000000 0.000000 10.000000 
Rear_Toe3_01 0.000000 0.000000 0.000000 0.000000 0.000000 0.000000 10.000000 
planeLockWeightCenter 0.000000 0.000000 0.000000 0.000000 0.000000 0.000000 10.000000 
Rear_Toe1_02 0.000000 0.000000 0.000000 0.000000 0.000000 0.000000 10.000000 
Rear_Toe1_03 0.000000 0.000000 0.000000 0.000000 0.000000 0.000000 10.000000 
Rear_Toe2_02 0.000000 0.000000 0.000000 0.000000 0.000000 0.000000 10.000000 
Rear_Toe2_03 0.000000 0.000000 0.000000 0.000000 0.000000 0.000000 10.000000 
Rear_Toe3_02 0.000000 0.000000 0.000000 0.000000 0.000000 0.000000 10.000000 
Rear_Toe3_03 0.000000 0.000000 0.000000 0.000000 0.000000 0.000000 10.000000 
Back_Bone 0.000000 0.000000 0.000000 0.000000 0.000000 0.000000 10.000000 
Head 0.000000 0.000000 0.000000 0.000000 0.000000 0.000000 10.000000 
Motor_Bone 0.000000 0.000000 0.000000 0.000000 0.000000 0.000000 10.000000 
Ping_Mechanism 0.000000 0.000000 0.000000 0.000000 0.000000 0.000000 10.000000 
BN_LookIK 0.000000 0.000000 0.000000 0.000000 0.000000 0.000000 10.000000 
bottomMouth 0.000000 0.000000 0.000000 0.000000 0.000000 0.000000 10.000000 
L_Mouth01 0.000000 0.000000 0.000000 0.000000 0.000000 0.000000 10.000000 
L_mouthFront 0.000000 0.000000 0.000000 0.000000 0.000000 0.000000 10.000000 
mouthGun 0.000000 0.000000 0.000000 0.000000 0.000000 0.000000 10.000000 
R_Mouth01 0.000000 0.000000 0.000000 0.000000 0.000000 0.000000 10.000000 
R_mouthFront 0.000000 0.000000 0.000000 0.000000 0.000000 0.000000 10.000000 
TopMouth 0.000000 0.000000 0.000000 0.000000 0.000000 0.000000 10.000000 
weapon_bone 0.000000 0.000000 0.000000 0.000000 0.000000 0.000000 10.000000 
#Beginning of Data. Separated by tabs
#Fr	Tx	Ty	Tz	Rx	Ry	Rz	SF
[Pinger_Root]
49 0.000000 0.000000 0.000000 -0.000075 -0.000001 -1.260096 0.000000
50 0.000000 0.000000 0.000000 -0.000075 -0.000001 -2.186883 0.000000
51 0.000000 0.000000 0.000000 -0.000075 -0.000002 -3.333676 0.000000
[Pelvis]
49 -1939.935059 1535.638428 3435.704102 -94.288986 -74.207359 87.592323 4233.862793
50 -2032.931763 1500.654907 3378.607666 -90.172035 -74.114822 84.547256 4218.977051
51 -2135.304199 1454.834106 3317.640869 -83.026054 -73.788887 78.781487 4205.093262
[L_Hip]
49 5.766392 125.831482 872.656799 160.158691 -45.484894 122.312202 881.701050
50 5.766392 125.831482 872.656799 160.158691 -45.484894 122.312202 881.701050
51 5.766392 125.831482 872.656799 160.158691 -45.484894 122.312202 881.701050
[R_Hip]
49 5.765438 125.836372 -872.654907 38.087826 49.812679 125.703735 881.699829
50 5.765438 125.836372 -872.654907 38.087841 49.812687 125.703735 881.699829
51 5.765438 125.836372 -872.654907 38.087826 49.812672 125.703735 881.699829
[Rear_Leg01]
49 -192.298416 -925.602966 -0.001907 156.133194 8.839937 -156.195938 945.367432
50 -192.298416 -925.602966 -0.001907 157.353455 10.758340 -155.876419 945.367432
51 -192.298416 -925.602966 -0.001907 159.215912 13.428548 -155.454254 945.367432
[Spine1]
49 290.604584 5.007505 0.000477 26.940832 -33.430210 -3.734470 290.647736
50 290.604584 5.007505 0.000477 23.360830 -31.543034 -0.239494 290.647736
51 290.604584 5.007505 0.000477 19.609159 -28.561180 3.322745 290.647736
[L_Leg01]
49 761.932007 -0.002384 -0.069261 35.294468 -14.635494 13.567864 761.932068
50 761.932007 -0.002384 -0.069261 33.577488 -16.177881 14.524409 761.932068
51 761.932007 -0.002384 -0.069261 30.849455 -17.869396 14.733674 761.932068
[L_Leg02]
49 1441.140503 -0.000954 -0.000715 8.884088 -0.038119 173.632614 1441.140503
50 1441.140503 -0.000954 -0.000715 9.149058 -0.041785 170.816330 1441.140503
51 1441.140503 -0.000954 -0.000715 9.360936 -0.041761 168.527893 1441.140503
[L_Leg03]
49 1686.963989 -0.000715 -0.000954 -0.045182 0.024082 122.469376 1686.963989
50 1686.963989 -0.000715 -0.000954 -0.045179 0.024087 122.482918 1686.963989
51 1686.963989 -0.000715 -0.000954 -0.045176 0.024093 122.496452 1686.963989
[L_Foot]
49 3041.570068 -30.715107 11.297464 -36.851353 20.901117 75.855072 3041.746094
50 3041.570068 -30.715107 11.297464 -36.044975 20.649355 77.170013 3041.746094
51 3041.570068 -30.715107 11.297464 -34.790264 20.481640 78.601295 3041.746094
[L_Toe1_01]
49 -188.216690 -224.732346 -21.137953 89.330788 -2.396121 -161.427643 293.899567
50 -188.216690 -224.732346 -21.137953 89.330788 -2.396120 -161.427643 293.899567
51 -188.216690 -224.732346 -21.137953 89.330788 -2.396121 -161.427643 293.899567
[L_Toe2_01]
49 200.746536 -219.926590 148.838394 -78.791496 -10.652695 -43.374847 332.896027
50 200.746536 -219.926590 148.838394 -78.791496 -10.652695 -43.374847 332.896027
51 200.746536 -219.926590 148.838394 -78.791496 -10.652695 -43.374847 332.896027
[L_Toe3_01]
49 188.832520 -219.859131 -191.078659 -109.186691 26.104870 -48.222927 347.140900
50 188.832520 -219.859131 -191.078659 -109.186691 26.104870 -48.222927 347.140900
51 188.832520 -219.859131 -191.078659 -109.186691 26.104870 -48.222927 347.140900
[planeAlignerLeft]
49 0.812531 -811.448792 -0.314951 0.000000 -90.000000 -90.001900 811.449280
50 0.812531 -811.448792 -0.314951 0.000000 -90.000000 -90.001900 811.449280
51 0.812531 -811.448792 -0.314951 0.000000 -90.000000 -90.001900 811.449280
[L_Toe1_02]
49 413.761139 0.000477 0.000000 0.000203 -25.410625 -0.000182 413.761139
50 413.761139 0.000477 0.000000 0.000203 -25.410625 -0.000182 413.761139
51 413.761139 0.000477 0.000000 0.000203 -25.410625 -0.000182 413.761139
[L_Toe1_03]
49 464.317322 0.000358 -0.000089 0.004933 62.473125 0.004933 464.317322
50 464.317322 0.000358 -0.000089 0.004933 62.473137 0.004933 464.317322
51 464.317322 0.000358 -0.000089 0.004933 62.473137 0.004933 464.317322
[L_Toe2_02]
49 342.235809 -0.000477 0.000238 -0.000101 -70.104240 0.000129 342.235809
50 342.235809 -0.000477 0.000238 -0.000101 -70.104240 0.000129 342.235809
51 342.235809 -0.000477 0.000238 -0.000101 -70.104240 0.000129 342.235809
[L_Toe2_03]
49 420.210846 -0.000715 0.000000 0.016997 82.081482 0.016997 420.210846
50 420.210846 -0.000715 0.000000 0.016997 82.081482 0.016997 420.210846
51 420.210846 -0.000715 0.000000 0.016997 82.081528 0.016997 420.210846
[L_Toe3_02]
49 329.270111 0.000954 0.000000 0.001178 -80.668365 0.001178 329.270111
50 329.270111 0.000954 0.000000 0.001178 -80.668320 0.001178 329.270111
51 329.270111 0.000954 0.000000 0.001178 -80.668365 0.001178 329.270111
[L_Toe3_03]
49 439.137451 -0.001907 0.000954 -179.996323 77.872597 -179.992813 439.137451
50 439.137451 -0.001907 0.000954 -179.996323 77.872643 -179.992813 439.137451
51 439.137451 -0.001907 0.000954 -179.996323 77.872597 -179.992813 439.137451
[planeLockWeightLeft]
49 -0.000954 0.000238 -0.000305 -0.011826 -0.004376 0.005620 0.001029
50 -0.000954 0.000238 -0.000305 -0.011826 -0.004376 0.005620 0.001029
51 -0.000954 0.000238 -0.000305 -0.011826 -0.004376 0.005620 0.001029
[R_Leg01]
49 761.455627 -0.001907 -0.000358 113.467773 -24.760855 5.085906 761.455688
50 761.455627 -0.001907 -0.000358 111.785469 -24.365559 2.715692 761.455688
51 761.455627 -0.001907 -0.000358 109.349884 -23.876245 -0.646982 761.455688
[R_Leg02]
49 1441.140625 0.000000 -0.000238 -2.766474 -1.067674 -161.627060 1441.140625
50 1441.140625 0.000000 -0.000238 -2.789467 -1.086244 -162.382614 1441.140625
51 1441.140625 0.000000 -0.000238 -2.818705 -1.112426 -163.492126 1441.140625
[R_Leg03]
49 1686.963989 0.000954 0.001431 0.110227 -0.067021 140.148666 1686.963989
50 1686.963989 0.000954 0.001431 0.110181 -0.067097 140.227539 1686.963989
51 1686.963989 0.000954 0.001431 0.110135 -0.067173 140.306427 1686.963989
[R_Foot]
49 3041.560059 -30.531288 -11.204481 44.811069 -21.513083 50.910645 3041.734131
50 3041.560059 -30.531288 -11.204481 47.265488 -21.316521 50.216618 3041.734131
51 3041.560059 -30.531288 -11.204481 50.341839 -21.058784 49.445889 3041.734131
[planeAlignerRight]
49 -0.635147 -812.270569 -0.364304 0.000000 -89.960434 -90.005180 812.270874
50 -0.635147 -812.270569 -0.364304 0.000000 -89.960434 -90.005180 812.270874
51 -0.635147 -812.270569 -0.364304 0.000000 -89.960434 -90.005180 812.270874
[R_Toe1_01]
49 -188.383347 -224.864899 21.052242 90.478722 3.231925 -161.378845 294.101532
50 -188.383347 -224.864899 21.052242 90.478722 3.231925 -161.378845 294.101532
51 -188.383347 -224.864899 21.052242 90.478714 3.231925 -161.378845 294.101532
[R_Toe2_01]
49 200.637817 -220.002121 -148.787384 -105.368958 18.813929 -49.808266 332.857574
50 200.637817 -220.002121 -148.787384 -105.368958 18.813929 -49.808266 332.857574
51 200.637817 -220.002121 -148.787384 -105.368950 18.813921 -49.808254 332.857574
[R_Toe3_01]
49 188.606735 -220.092957 191.126343 -76.041084 -6.322366 -46.892483 347.192566
50 188.606735 -220.092957 191.126343 -76.041084 -6.322366 -46.892483 347.192566
51 188.606735 -220.092957 191.126343 -76.041084 -6.322367 -46.892487 347.192566
[planeLockWeightRight]
49 -0.000477 0.000000 0.000000 -0.011823 -0.004379 -0.000027 0.000477
50 -0.000477 0.000000 0.000000 -0.011823 -0.004379 -0.000027 0.000477
51 -0.000477 0.000000 0.000000 -0.011823 -0.004379 -0.000027 0.000477
[R_Toe1_02]
49 413.762085 0.000477 -0.000119 0.001401 -23.743965 0.001401 413.762085
50 413.762085 0.000477 -0.000119 0.001401 -23.743965 0.001401 413.762085
51 413.762085 0.000477 -0.000119 0.001401 -23.743963 0.001401 413.762085
[R_Toe1_03]
49 464.317810 0.000000 0.001088 0.008919 74.877419 0.008919 464.317810
50 464.317810 0.000000 0.001088 0.008919 74.877388 0.008919 464.317810
51 464.317810 0.000000 0.001088 0.008919 74.877419 0.008919 464.317810
[R_Toe2_02]
49 342.234741 -0.000954 0.000238 0.001188 -72.307785 0.001188 342.234741
50 342.234741 -0.000954 0.000238 0.001188 -72.307755 0.001188 342.234741
51 342.234741 -0.000954 0.000238 0.001188 -72.307701 0.001188 342.234741
[R_Toe2_03]
49 420.210846 0.000715 -0.000268 0.028213 85.231781 0.028213 420.210846
50 420.210846 0.000715 -0.000268 0.028213 85.231697 0.028213 420.210846
51 420.210846 0.000715 -0.000268 0.028213 85.231743 0.028213 420.210846
[R_Toe3_02]
49 329.270355 -0.000477 -0.000954 0.001177 -80.843628 0.001177 329.270355
50 329.270355 -0.000477 -0.000954 0.001177 -80.843628 0.001177 329.270355
51 329.270355 -0.000477 -0.000954 0.001177 -80.843628 0.001177 329.270355
[R_Toe3_03]
49 439.137939 0.000238 0.001431 -179.996658 77.076111 -179.993134 439.137939
50 439.137939 0.000238 0.001431 -179.996658 77.076111 -179.993134 439.137939
51 439.137939 0.000238 0.001431 -179.996658 77.076202 -179.993134 439.137939
[Rear_Leg02]
49 1162.777710 -0.029802 0.005960 0.094226 0.014442 -104.993271 1162.777710
50 1162.777710 -0.029802 0.005960 0.093885 0.023127 -105.928917 1162.777710
51 1162.777710 -0.029802 0.005960 0.093402 0.031804 -106.864532 1162.777710
[Rear_Leg03]
49 607.192505 -0.013351 -0.073195 0.006597 -0.001690 56.956203 607.192505
50 607.192505 -0.013351 -0.073195 0.006592 -0.001713 57.342136 607.192505
51 607.192505 -0.013351 -0.073195 0.006586 -0.001735 57.728062 607.192505
[Rear_Leg04]
49 995.874512 -0.020504 -0.011921 -0.037221 -0.016735 44.853928 995.874573
50 995.874512 -0.020504 -0.011921 -0.037635 -0.017284 45.505627 995.874573
51 995.874512 -0.020504 -0.011921 -0.038055 -0.017828 46.157318 995.874573
[Rear_Foot]
49 3096.176270 -0.067472 -0.041425 -179.668518 82.456207 31.301657 3096.176270
50 3096.176270 -0.067472 -0.041425 -179.659042 83.342628 31.820198 3096.176270
51 3096.176270 -0.067472 -0.041425 -179.766205 84.444832 32.303864 3096.176270
[planeAlignerCenter]
49 0.350077 0.966311 -838.790894 0.000009 0.000003 -179.999985 838.791565
50 0.350077 0.966311 -838.790894 0.000009 0.000003 -179.999985 838.791565
51 0.350077 0.966311 -838.790894 0.000009 0.000003 -179.999985 838.791565
[Rear_Toe1_01]
49 0.653352 83.966492 -371.173737 0.292123 41.924232 90.410873 380.553192
50 0.653352 83.966492 -371.173737 0.292166 41.924202 90.410904 380.553192
51 0.653352 83.966492 -371.173737 0.292210 41.924171 90.410934 380.553192
[Rear_Toe2_01]
49 178.200760 -294.826019 -362.060547 -2.184300 34.544052 -64.362106 499.765686
50 178.200760 -294.826019 -362.060547 -2.184272 34.544003 -64.362076 499.765686
51 178.200760 -294.826019 -362.060547 -2.184239 34.543961 -64.362045 499.765686
[Rear_Toe3_01]
49 -153.359680 -308.780914 -362.060852 3.870836 33.514236 -112.318695 499.952881
50 -153.359680 -308.780914 -362.060852 3.870838 33.514248 -112.318695 499.952881
51 -153.359680 -308.780914 -362.060852 3.870841 33.514248 -112.318695 499.952881
[planeLockWeightCenter]
49 -0.000062 0.000238 0.000000 -0.011814 -0.004373 -0.000015 0.000246
50 -0.000062 0.000238 0.000000 -0.011814 -0.004373 -0.000015 0.000246
51 -0.000062 0.000238 0.000000 -0.011814 -0.004373 -0.000015 0.000246
[Rear_Toe1_02]
49 379.707825 0.194073 0.000477 -0.000242 -31.673138 0.006934 379.707855
50 379.707825 0.194073 0.000477 -0.000242 -31.673185 0.006934 379.707855
51 379.707825 0.194073 0.000477 -0.000242 -31.673231 0.006934 379.707855
[Rear_Toe1_03]
49 500.129700 0.165701 0.000119 -0.000106 51.874424 0.007293 500.129761
50 500.129700 0.165701 0.000119 -0.000106 51.874550 0.007293 500.129761
51 500.129700 0.165701 0.000119 -0.000106 51.874699 0.007293 500.129761
[Rear_Toe2_02]
49 340.494507 0.000238 -0.000954 0.001192 -69.854523 0.001192 340.494507
50 340.494507 0.000238 -0.000954 0.001192 -69.854523 0.001192 340.494507
51 340.494507 0.000238 -0.000954 0.001192 -69.854523 0.001192 340.494507
[Rear_Toe2_03]
49 433.103577 0.000000 0.000238 0.006694 69.804291 0.006694 433.103546
50 433.103577 0.000000 0.000238 0.006694 69.804291 0.006694 433.103546
51 433.103577 0.000000 0.000238 0.006694 69.804291 0.006694 433.103546
[Rear_Toe3_02]
49 340.494141 -0.000358 -0.000477 0.008286 -67.268768 -0.009458 340.494171
50 340.494141 -0.000358 -0.000477 0.008285 -67.268761 -0.009458 340.494171
51 340.494141 -0.000358 -0.000477 0.008285 -67.268761 -0.009458 340.494171
[Rear_Toe3_03]
49 433.103577 0.001431 -0.000238 -0.000971 65.948952 -0.004546 433.103546
50 433.103577 0.001431 -0.000238 -0.000971 65.949013 -0.004546 433.103546
51 433.103577 0.001431 -0.000238 -0.000971 65.949066 -0.004546 433.103546
[Back_Bone]
49 1312.175781 -701.934692 0.000954 0.000023 -0.000007 -85.606667 1488.125488
50 1312.175781 -701.934692 0.000954 0.000023 -0.000007 -85.606667 1488.125488
51 1312.175781 -701.934692 0.000954 0.000023 -0.000007 -85.606667 1488.125488
[Head]
49 1406.159424 809.709290 0.001431 -0.001833 -0.900515 16.866028 1622.625488
50 1406.159424 809.709290 0.001431 -0.001927 -1.019248 16.864920 1622.625488
51 1406.159424 809.709290 0.001431 -0.002018 -1.137980 16.863810 1622.625488
[Motor_Bone]
49 1158.364380 -417.834747 0.000477 -7.611032 -1.356281 -104.435768 1231.419434
50 1158.364380 -417.834747 0.000477 -7.789581 -1.686773 -104.567116 1231.419434
51 1158.364380 -417.834747 0.000477 -7.967400 -2.017670 -104.697433 1231.419434
[Ping_Mechanism]
49 1234.360840 -435.835999 5.849848 0.000103 -0.000053 82.120995 1309.058350
50 1234.442993 -436.641113 5.442089 0.000103 -0.000053 82.120995 1309.402344
51 1234.525024 -437.446259 5.034327 0.000103 -0.000053 82.120995 1309.746826
[BN_LookIK]
49 193.241119 1380.371704 -0.002861 0.000000 89.965736 -31.038179 1393.832153
50 193.241119 1380.371704 -0.002861 0.000000 89.965736 -31.038179 1393.832153
51 193.241119 1380.371704 -0.002861 0.000000 89.965736 -31.038179 1393.832153
[bottomMouth]
49 -435.092926 615.759399 -0.000954 -0.000022 0.000016 73.527184 753.966492
50 -435.092926 615.759399 -0.000954 -0.000022 0.000016 73.527184 753.966492
51 -435.092926 615.759399 -0.000954 -0.000022 0.000016 73.527184 753.966492
[L_Mouth01]
49 554.440979 7.658243 838.222046 150.204178 23.759130 109.605339 1005.027161
50 554.440979 7.658243 838.222046 150.204178 23.759130 109.605339 1005.027161
51 554.440979 7.658243 838.222046 150.204178 23.759130 109.605339 1005.027161
[L_mouthFront]
49 551.629089 934.514771 339.150421 0.000081 2.804060 79.119301 1136.941284
50 551.629089 934.514771 339.150421 0.000081 2.804060 79.119301 1136.941284
51 551.629089 934.514771 339.150421 0.000081 2.804060 79.119301 1136.941284
[mouthGun]
49 55.332661 1627.420898 0.000000 0.000023 0.000009 -11.038128 1628.361328
50 55.332661 1627.420898 0.000000 0.000023 0.000009 -11.038128 1628.361328
51 55.332661 1627.420898 0.000000 0.000023 0.000009 -11.038128 1628.361328
[R_Mouth01]
49 554.442383 7.659197 -838.223938 29.795891 -23.759109 109.605331 1005.029541
50 554.442383 7.659197 -838.223938 29.795891 -23.759109 109.605331 1005.029541
51 554.442383 7.659197 -838.223938 29.795891 -23.759109 109.605331 1005.029541
[R_mouthFront]
49 551.629089 934.514282 -339.151367 0.000029 -2.803930 79.119133 1136.941162
50 551.629089 934.514282 -339.151367 0.000029 -2.803930 79.119133 1136.941162
51 551.629089 934.514282 -339.151367 0.000029 -2.803930 79.119133 1136.941162
[TopMouth]
49 461.269867 -56.106091 -0.008583 -0.000059 -0.000268 92.025169 464.669525
50 461.269867 -56.106091 -0.008583 -0.000059 -0.000268 92.025169 464.669525
51 461.269867 -56.106091 -0.008583 -0.000059 -0.000268 92.025169 464.669525
[weapon_bone]
49 -987.239868 1448.372803 0.001431 0.000000 89.965736 -31.038221 1752.833740
50 -987.239868 1448.372803 0.001431 0.000000 89.965736 -31.038221 1752.833740
51 -987.239868 1448.372803 0.001431 0.000000 89.965736 -31.038221 1752.833740
